<svg width="100" height="46" viewBox="0 0 100 46" fill="none" xmlns="http://www.w3.org/2000/svg">
<rect y="0.140106" width="99.6757" height="45.0811" rx="22.5405" fill="#D9D9D9"/>
<path d="M24.7011 31.9759C27.8018 31.9759 30.2529 30.6471 31.1978 28.4027H31.316V31.6806H33.2355V21.8764H24.3172V23.7369H31.1683V24.7409C31.1683 28.2846 29.1602 29.9383 25.085 29.9383C20.2715 29.9383 18.1453 27.2806 18.1453 21.7879C18.1453 16.2951 20.2419 13.6374 24.9373 13.6374C29.1012 13.6374 30.9616 15.4388 30.9616 18.7757V19.0415H33.2059V18.7757C33.2059 14.3756 29.869 11.5998 25.1145 11.5998C19.3856 11.5998 15.9009 15.6159 15.9009 21.7879C15.9009 28.0188 19.1788 31.9759 24.7011 31.9759ZM56.107 23.9731V22.1127H35.8194V23.9731H56.107ZM69.7324 24.3275C68.5905 25.6859 67.4585 27.0443 66.3364 28.4027C65.2339 29.7415 64.0527 31.031 62.7927 32.2712L62.143 32.0645C62.1824 30.7849 62.2021 29.4363 62.2021 28.0188C62.2217 26.5817 62.2316 25.1051 62.2316 23.5892C62.2316 22.0536 62.2217 20.4983 62.2021 18.9234C62.2021 17.3484 62.2021 15.6947 62.2021 13.9622C62.2021 13.6866 61.9855 13.4504 61.5524 13.2535C61.1193 13.0566 60.5582 12.8991 59.8691 12.781V12.3676C60.4401 12.4069 61.011 12.4365 61.5819 12.4562C62.1528 12.4758 62.7238 12.4857 63.2947 12.4857C63.9247 12.4857 64.5448 12.4758 65.1551 12.4562C65.7851 12.4168 66.4151 12.3872 67.0451 12.3676V12.781C66.7498 12.8401 66.4545 12.9385 66.1592 13.0763C65.8836 13.1944 65.6276 13.3421 65.3914 13.5193C65.1748 13.6768 64.9976 13.8638 64.8598 14.0803C64.722 14.2772 64.6531 14.5036 64.6531 14.7595C64.6334 17.2795 64.6137 19.7404 64.594 22.1422C64.594 24.5244 64.594 26.9065 64.594 29.2886L64.6236 29.3477L69.7324 23.2644V13.9917C69.7324 13.8146 69.6733 13.6669 69.5552 13.5488C69.4371 13.411 69.2894 13.2929 69.1122 13.1944C68.9547 13.0763 68.7776 12.9877 68.5807 12.9286C68.4035 12.8499 68.2559 12.8007 68.1377 12.781V12.3676C69.2993 12.4266 70.451 12.466 71.5928 12.4857C72.7347 12.4857 73.8864 12.4857 75.0479 12.4857C75.8748 12.4857 76.6918 12.4857 77.499 12.4857C78.3258 12.466 79.1527 12.4266 79.9795 12.3676V12.781C78.4833 14.1 77.0954 15.5667 75.8157 17.1811C74.536 18.7954 73.2958 20.3605 72.0948 21.8764V29.2296H72.1834C72.3409 29.0327 72.6264 28.6882 73.0398 28.196C73.4533 27.7038 73.9454 27.1231 74.5164 26.4537C75.107 25.7647 75.737 25.0067 76.4063 24.1798C77.0954 23.353 77.7844 22.5163 78.4735 21.6697C79.1625 20.8035 79.8319 19.9569 80.4816 19.1301C81.1312 18.2835 81.7022 17.5059 82.1943 16.7972C82.7062 16.0884 83.1098 15.4683 83.4051 14.9367C83.7004 14.4052 83.8481 14.0114 83.8481 13.7555C83.8481 13.598 83.7398 13.47 83.5232 13.3716C83.3264 13.2535 83.0803 13.155 82.785 13.0763C82.5093 12.9975 82.214 12.9385 81.899 12.8991C81.6037 12.84 81.3478 12.8007 81.1312 12.781V12.3676C81.7022 12.4069 82.2632 12.4365 82.8145 12.4562C83.3854 12.4758 83.9563 12.4857 84.5273 12.4857C84.9801 12.4857 85.4329 12.4758 85.8857 12.4562C86.3582 12.4365 86.8208 12.4069 87.2736 12.3676V12.781C84.1827 16.1672 81.2395 19.5337 78.4439 22.8805C75.6484 26.2076 72.9119 29.3379 70.2344 32.2712L69.7324 32.0055V24.3275ZM72.0948 20.8724H72.1834C72.6362 20.203 73.1383 19.514 73.6895 18.8053C74.2407 18.0965 74.7526 17.4173 75.2251 16.7676C75.7173 16.118 76.1307 15.5273 76.4654 14.9958C76.8001 14.4642 76.9674 14.041 76.9674 13.726C76.9674 13.5685 76.8985 13.4405 76.7607 13.3421C76.6229 13.2436 76.4555 13.1649 76.2587 13.1058C76.0815 13.0468 75.8846 13.0074 75.6681 12.9877C75.4712 12.968 75.3137 12.9582 75.1956 12.9582C74.5459 12.9582 74.0143 13.0271 73.6009 13.1649C73.2072 13.3027 72.8922 13.5586 72.6559 13.9327C72.4394 14.3067 72.2917 14.8285 72.213 15.4978C72.1342 16.1475 72.0948 16.994 72.0948 18.0375V20.8724Z" fill="#201C1C"/>
</svg>
