<svg width="1431" height="145" viewBox="0 0 1431 145" fill="none" xmlns="http://www.w3.org/2000/svg">
<path d="M61.3907 142.048C82.8907 142.048 99.886 132.833 106.438 117.271H107.257V140H120.567V72.0188H58.7288V84.9189H106.234V91.8808C106.234 116.452 92.3098 127.919 64.0526 127.919C30.6763 127.919 15.9334 109.49 15.9334 71.4046C15.9334 33.3187 30.4715 14.8901 63.0288 14.8901C91.9003 14.8901 104.8 27.3806 104.8 50.5188V52.3616H120.362V50.5188C120.362 20.0092 97.2241 0.761501 64.2574 0.761501C24.5334 0.761501 0.37145 28.6092 0.37145 71.4046C0.37145 114.609 23.1001 142.048 61.3907 142.048ZM157.984 140V73.0427C157.984 56.6617 164.537 49.495 180.303 49.495C194.841 49.495 199.756 55.6378 199.756 71.4046V74.8855H214.499V69.1522C214.499 51.7474 206.513 36.7997 185.627 36.7997C170.679 36.7997 160.851 45.195 157.575 54.614H156.551V37.6188H143.241V140H157.984ZM272.63 142.048C298.43 142.048 316.04 127.1 316.04 107.648V106.214H301.502V107.443C301.502 119.729 293.311 128.943 272.835 128.943C248.673 128.943 239.868 115.838 239.254 93.5189H315.835C316.45 90.6522 316.859 86.1475 316.859 81.4379C316.859 51.5426 296.792 36.7997 272.426 36.7997C243.554 36.7997 225.33 58.7093 225.33 89.4237C225.33 120.138 241.506 142.048 272.63 142.048ZM272.016 49.495C291.878 49.495 303.754 58.914 302.935 82.8713H239.254C240.483 62.395 249.492 49.495 272.016 49.495ZM364.649 142.048C383.896 142.048 396.796 132.833 402.735 121.162L403.758 121.367V140H417.068V76.7284C417.068 54.2045 404.782 36.7997 377.754 36.7997C351.544 36.7997 335.368 53.5902 335.368 74.6808V76.3189H349.496V73.2474C349.496 57.0712 358.096 49.9045 376.525 49.9045C395.568 49.9045 403.144 57.0712 403.144 74.8855V82.257L367.515 87.1713C345.401 90.2427 332.296 98.0237 332.296 115.633C332.296 132.629 346.22 142.048 364.649 142.048ZM346.63 114.609C346.63 103.757 352.568 100.481 368.744 98.2284L403.144 93.3141V96.7951C403.144 120.752 386.149 129.762 368.744 129.762C353.182 129.762 346.63 125.052 346.63 114.609ZM475.868 140.205C483.24 140.205 489.587 139.181 493.068 138.567V126.69H479.759C466.654 126.69 461.125 124.029 461.125 112.152V51.5426H493.068V38.8473H461.125V13.0473H450.068L446.587 38.8473H429.387V51.5426H446.383V111.333C446.383 132.833 457.235 140.205 475.868 140.205ZM536.646 140V91.2665H548.932C563.47 91.2665 567.565 96.3856 573.708 108.262L589.884 140H625.718L608.313 105.6C602.989 95.157 597.256 87.9903 585.379 84.3046V82.257C608.927 80.2093 619.984 66.8998 619.984 44.5807C619.984 17.9615 601.76 2.80912 568.998 2.80912H505.932V140H536.646ZM536.646 30.4521H570.432C584.765 30.4521 589.475 34.9568 589.475 48.0616C589.475 61.576 584.765 65.876 570.432 65.876H536.646V30.4521ZM811.658 86.557V73.657H670.986V86.557H811.658ZM943.928 89.0141C936.011 98.4332 928.162 107.852 920.381 117.271C912.736 126.554 904.546 135.495 895.809 144.095L891.304 142.662C891.577 133.789 891.714 124.438 891.714 114.609C891.85 104.644 891.919 94.4062 891.919 83.8951C891.919 73.2474 891.85 62.4633 891.714 51.5426C891.714 40.6219 891.714 29.1552 891.714 17.1425C891.714 15.2314 890.212 13.5933 887.209 12.2282C884.206 10.8631 880.315 9.77105 875.538 8.95199V6.08532C879.496 6.35834 883.455 6.5631 887.414 6.69961C891.373 6.83612 895.331 6.90437 899.29 6.90437C903.658 6.90437 907.958 6.83612 912.19 6.69961C916.558 6.42659 920.927 6.22182 925.295 6.08532V8.95199C923.247 9.36152 921.2 10.0441 919.152 10.9996C917.241 11.8187 915.466 12.8425 913.828 14.0711C912.327 15.1631 911.098 16.46 910.142 17.9615C909.187 19.3266 908.709 20.8965 908.709 22.6711C908.573 40.1442 908.436 57.2077 908.3 73.8617C908.3 90.3792 908.3 106.897 908.3 123.414L908.504 123.824L943.928 81.6427V17.3473C943.928 16.1187 943.519 15.0949 942.7 14.2758C941.881 13.3203 940.857 12.5012 939.628 11.8187C938.536 10.9996 937.308 10.3853 935.942 9.9758C934.714 9.42977 933.69 9.0885 932.871 8.95199V6.08532C940.925 6.49485 948.911 6.76786 956.828 6.90437C964.746 6.90437 972.731 6.90437 980.785 6.90437C986.519 6.90437 992.184 6.90437 997.781 6.90437C1003.51 6.76786 1009.25 6.49485 1014.98 6.08532V8.95199C1004.61 18.0981 994.982 28.2679 986.109 39.4616C977.236 50.6553 968.636 61.5077 960.309 72.0188V123.005H960.924C962.016 121.64 963.995 119.251 966.862 115.838C969.728 112.425 973.141 108.398 977.1 103.757C981.195 98.9792 985.563 93.7237 990.205 87.9903C994.982 82.257 999.76 76.4554 1004.54 70.5855C1009.32 64.5791 1013.96 58.7093 1018.46 52.9759C1022.97 47.1061 1026.93 41.714 1030.34 36.7997C1033.89 31.8854 1036.69 27.5854 1038.73 23.8997C1040.78 20.2139 1041.8 17.4838 1041.8 15.7092C1041.8 14.6171 1041.05 13.7298 1039.55 13.0473C1038.19 12.2282 1036.48 11.5457 1034.43 10.9996C1032.52 10.4536 1030.47 10.0441 1028.29 9.77104C1026.24 9.36152 1024.47 9.0885 1022.97 8.95199V6.08532C1026.93 6.35834 1030.82 6.5631 1034.64 6.69961C1038.6 6.83612 1042.56 6.90437 1046.51 6.90437C1049.65 6.90437 1052.79 6.83612 1055.93 6.69961C1059.21 6.5631 1062.42 6.35834 1065.56 6.08532V8.95199C1044.13 32.4314 1023.72 55.7744 1004.33 78.9808C984.949 102.051 965.974 123.756 947.409 144.095L943.928 142.252V89.0141ZM960.309 65.0569H960.924C964.063 60.4156 967.544 55.6378 971.366 50.7235C975.189 45.8092 978.738 41.0997 982.014 36.5949C985.427 32.0902 988.293 27.9949 990.614 24.3092C992.935 20.6235 994.095 17.6885 994.095 15.5044C994.095 14.4123 993.617 13.525 992.662 12.8425C991.706 12.1599 990.546 11.6139 989.181 11.2044C987.952 10.7949 986.587 10.5218 985.085 10.3853C983.72 10.2488 982.628 10.1806 981.809 10.1806C977.305 10.1806 973.619 10.6584 970.752 11.6139C968.022 12.5695 965.838 14.3441 964.2 16.9377C962.698 19.5314 961.674 23.1489 961.128 27.7901C960.582 32.2949 960.309 38.1648 960.309 45.3997V65.0569ZM1100.32 142.048C1129.81 142.048 1148.65 120.138 1148.65 89.4237C1148.65 58.7093 1129.81 36.7997 1100.32 36.7997C1070.63 36.7997 1051.18 58.7093 1051.18 89.4237C1051.18 120.138 1070.63 142.048 1100.32 142.048ZM1100.32 128.943C1075.55 128.943 1065.72 114.609 1065.72 89.4237C1065.72 64.2379 1075.55 50.1093 1100.32 50.1093C1124.69 50.1093 1134.31 64.2379 1134.31 89.4237C1134.31 114.609 1124.69 128.943 1100.32 128.943ZM1181.2 140V73.0427C1181.2 56.6617 1187.75 49.495 1203.52 49.495C1218.05 49.495 1222.97 55.6378 1222.97 71.4046V74.8855H1237.71V69.1522C1237.71 51.7474 1229.73 36.7997 1208.84 36.7997C1193.89 36.7997 1184.06 45.195 1180.79 54.614H1179.76V37.6188H1166.45V140H1181.2ZM1267.38 140V94.5427H1292.77L1322.67 140H1339.87L1304.65 86.7617L1340.69 38.8473H1323.49L1292.77 81.2332H1267.38V2.80912H1252.64V140H1267.38ZM1392.17 142.048C1415.52 142.048 1430.26 131.4 1430.26 113.381C1430.26 96.5903 1418.59 88.8094 1400.98 85.5332L1383.78 82.257C1368.62 79.3903 1363.51 75.9093 1363.51 65.6712C1363.51 55.4331 1369.24 49.495 1387.67 49.495C1409.37 49.495 1414.08 58.7093 1414.08 70.7903V72.4284H1428.21V71.4046C1428.21 48.6759 1411.22 36.7997 1388.08 36.7997C1364.12 36.7997 1349.38 48.4712 1349.38 65.876C1349.38 83.6903 1361.25 91.2665 1377.63 94.338L1394.42 97.2046C1409.78 100.071 1416.13 103.757 1416.13 113.995C1416.13 124.233 1411.22 129.557 1392.38 129.557C1369.44 129.557 1363.71 122.8 1363.71 108.876V106.419H1349.38V106.828C1349.38 130.376 1364.53 142.048 1392.17 142.048Z" fill="#201C1C"/>
</svg>
