<svg width="786" height="595" viewBox="0 0 786 595" fill="none" xmlns="http://www.w3.org/2000/svg">
<path d="M78.592 78.184C71.4773 86.648 64.424 95.112 57.432 103.576C50.5627 111.917 43.2027 119.952 35.352 127.68L31.304 126.392C31.5493 118.419 31.672 110.016 31.672 101.184C31.7947 92.2293 31.856 83.0293 31.856 73.584C31.856 64.016 31.7947 54.3253 31.672 44.512C31.672 34.6987 31.672 24.3947 31.672 13.6C31.672 11.8827 30.3227 10.4107 27.624 9.184C24.9253 7.95733 21.4293 6.976 17.136 6.23999V3.66399C20.6933 3.90933 24.2507 4.09333 27.808 4.216C31.3653 4.33866 34.9227 4.39999 38.48 4.39999C42.4053 4.39999 46.2693 4.33866 50.072 4.216C53.9973 3.97066 57.9227 3.78666 61.848 3.66399V6.23999C60.008 6.60799 58.168 7.22133 56.328 8.07999C54.6107 8.816 53.016 9.736 51.544 10.84C50.1947 11.8213 49.0907 12.9867 48.232 14.336C47.3733 15.5627 46.944 16.9733 46.944 18.568C46.8213 34.2693 46.6987 49.6027 46.576 64.568C46.576 79.4107 46.576 94.2533 46.576 109.096L46.76 109.464L78.592 71.56V13.784C78.592 12.68 78.224 11.76 77.488 11.024C76.752 10.1653 75.832 9.42932 74.728 8.81599C73.7467 8.07999 72.6427 7.52799 71.416 7.15999C70.312 6.66932 69.392 6.36266 68.656 6.23999V3.66399C75.8933 4.03199 83.0693 4.27733 90.184 4.39999C97.2987 4.39999 104.475 4.39999 111.712 4.39999C116.864 4.39999 121.955 4.39999 126.984 4.39999C132.136 4.27733 137.288 4.03199 142.44 3.66399V6.23999C133.117 14.4587 124.469 23.5973 116.496 33.656C108.523 43.7147 100.795 53.4667 93.312 62.912V108.728H93.864C94.8453 107.501 96.624 105.355 99.2 102.288C101.776 99.2213 104.843 95.6027 108.4 91.432C112.08 87.1387 116.005 82.416 120.176 77.264C124.469 72.112 128.763 66.8987 133.056 61.624C137.349 56.2267 141.52 50.952 145.568 45.8C149.616 40.5253 153.173 35.68 156.24 31.264C159.429 26.848 161.944 22.984 163.784 19.672C165.624 16.36 166.544 13.9067 166.544 12.312C166.544 11.3307 165.869 10.5333 164.52 9.92C163.293 9.18399 161.76 8.57066 159.92 8.07999C158.203 7.58933 156.363 7.22133 154.4 6.97599C152.56 6.60799 150.965 6.36266 149.616 6.23999V3.66399C153.173 3.90933 156.669 4.09333 160.104 4.216C163.661 4.33866 167.219 4.39999 170.776 4.39999C173.597 4.39999 176.419 4.33866 179.24 4.216C182.184 4.09333 185.067 3.90933 187.888 3.66399V6.23999C168.629 27.3387 150.291 48.3147 132.872 69.168C115.453 89.8987 98.4027 109.403 81.72 127.68L78.592 126.024V78.184ZM93.312 56.656H93.864C96.6853 52.4853 99.8133 48.192 103.248 43.776C106.683 39.36 109.872 35.128 112.816 31.08C115.883 27.032 118.459 23.352 120.544 20.04C122.629 16.728 123.672 14.0907 123.672 12.128C123.672 11.1467 123.243 10.3493 122.384 9.73599C121.525 9.12266 120.483 8.63199 119.256 8.264C118.152 7.896 116.925 7.65066 115.576 7.528C114.349 7.40533 113.368 7.344 112.632 7.344C108.584 7.344 105.272 7.77333 102.696 8.63199C100.243 9.49066 98.28 11.0853 96.808 13.416C95.4587 15.7467 94.5387 18.9973 94.048 23.168C93.5573 27.216 93.312 32.4907 93.312 38.992V56.656ZM217.472 125.84C240.656 125.84 256.48 112.408 256.48 94.928V93.64H243.416V94.744C243.416 105.784 236.056 114.064 217.656 114.064C195.944 114.064 188.032 102.288 187.48 82.232H256.296C256.848 79.656 257.216 75.608 257.216 71.376C257.216 44.512 239.184 31.264 217.288 31.264C191.344 31.264 174.968 50.952 174.968 78.552C174.968 106.152 189.504 125.84 217.472 125.84ZM216.92 42.672C234.768 42.672 245.44 51.136 244.704 72.664H187.48C188.584 54.264 196.68 42.672 216.92 42.672ZM274.036 43.224C281.764 43.224 286.548 39.36 286.548 30.712V0.719997H270.356V26.296H277.532V30.896C277.532 34.024 276.244 34.576 273.668 34.576H269.988V43.224H274.036ZM339.06 125.84C356.172 125.84 366.844 117.928 370.892 106.52H371.628V124H383.404V0.719997H370.156V50.4C366.292 40.464 355.068 31.264 337.588 31.264C312.748 31.264 299.132 49.848 299.132 78.552C299.132 107.256 313.484 125.84 339.06 125.84ZM312.38 78.552C312.38 50.768 323.42 42.672 341.268 42.672C359.3 42.672 370.156 52.056 370.156 70.824V86.464C370.156 105.048 359.3 114.432 341.268 114.432C323.236 114.432 312.38 106.336 312.38 78.552ZM451.185 124V0.719997H437.937V124H451.185ZM511.479 125.84C537.975 125.84 554.903 106.152 554.903 78.552C554.903 50.952 537.975 31.264 511.479 31.264C484.799 31.264 467.319 50.952 467.319 78.552C467.319 106.152 484.799 125.84 511.479 125.84ZM511.479 114.064C489.215 114.064 480.383 101.184 480.383 78.552C480.383 55.92 489.215 43.224 511.479 43.224C533.375 43.224 542.023 55.92 542.023 78.552C542.023 101.184 533.375 114.064 511.479 114.064ZM611.844 124L649.012 33.104H634.844L604.3 111.12H603.38L572.652 33.104H558.3L595.468 124H611.844ZM694.901 125.84C718.085 125.84 733.909 112.408 733.909 94.928V93.64H720.845V94.744C720.845 105.784 713.485 114.064 695.085 114.064C673.373 114.064 665.461 102.288 664.909 82.232H733.725C734.277 79.656 734.645 75.608 734.645 71.376C734.645 44.512 716.613 31.264 694.717 31.264C668.773 31.264 652.397 50.952 652.397 78.552C652.397 106.152 666.933 125.84 694.901 125.84ZM694.349 42.672C712.197 42.672 722.869 51.136 722.133 72.664H664.909C666.013 54.264 674.109 42.672 694.349 42.672ZM42.344 343.184C48.968 343.184 54.672 342.264 57.8 341.712V331.04H45.84C34.064 331.04 29.096 328.648 29.096 317.976V263.512H57.8V252.104H29.096V228.92H19.16L16.032 252.104H0.576V263.512H15.848V317.24C15.848 336.56 25.6 343.184 42.344 343.184ZM107.362 344.84C133.858 344.84 150.786 325.152 150.786 297.552C150.786 269.952 133.858 250.264 107.362 250.264C80.6821 250.264 63.2021 269.952 63.2021 297.552C63.2021 325.152 80.6821 344.84 107.362 344.84ZM107.362 333.064C85.0981 333.064 76.2661 320.184 76.2661 297.552C76.2661 274.92 85.0981 262.224 107.362 262.224C129.258 262.224 137.906 274.92 137.906 297.552C137.906 320.184 129.258 333.064 107.362 333.064ZM213.608 343V325.52H214.16C218.208 336.928 229.064 344.84 246.176 344.84C271.752 344.84 285.92 326.256 285.92 297.552C285.92 268.848 272.488 250.264 247.648 250.264C230.168 250.264 218.944 259.464 214.896 269.4V219.72H201.648V343H213.608ZM214.896 305.464V289.824C214.896 271.056 225.936 261.672 243.968 261.672C261.632 261.672 272.672 269.768 272.672 297.552C272.672 325.336 261.816 333.432 243.968 333.432C225.936 333.432 214.896 324.048 214.896 305.464ZM341.636 344.84C364.82 344.84 380.644 331.408 380.644 313.928V312.64H367.58V313.744C367.58 324.784 360.22 333.064 341.82 333.064C320.108 333.064 312.196 321.288 311.644 301.232H380.46C381.012 298.656 381.38 294.608 381.38 290.376C381.38 263.512 363.348 250.264 341.452 250.264C315.508 250.264 299.132 269.952 299.132 297.552C299.132 325.152 313.668 344.84 341.636 344.84ZM341.084 261.672C358.932 261.672 369.604 270.136 368.868 291.664H311.644C312.748 273.264 320.844 261.672 341.084 261.672ZM445.961 374.28C455.897 374.28 464.545 371.336 470.433 357.536L514.777 252.104H500.425L480.369 302.704L471.353 324.968H470.249L460.681 302.704L439.337 252.104H424.985L463.993 341.712L458.841 353.488C455.529 360.664 452.769 362.32 444.489 362.32H434.185V372.992C436.761 373.544 441.545 374.28 445.961 374.28ZM561.972 344.84C588.468 344.84 605.396 325.152 605.396 297.552C605.396 269.952 588.468 250.264 561.972 250.264C535.292 250.264 517.812 269.952 517.812 297.552C517.812 325.152 535.292 344.84 561.972 344.84ZM561.972 333.064C539.708 333.064 530.876 320.184 530.876 297.552C530.876 274.92 539.708 262.224 561.972 262.224C583.868 262.224 592.516 274.92 592.516 297.552C592.516 320.184 583.868 333.064 561.972 333.064ZM655.622 344.84C674.574 344.84 684.878 333.432 688.558 322.944H689.11V343H701.07V252.104H688.006V303.072C688.006 324.416 676.598 333.248 659.854 333.248C642.006 333.248 634.094 324.6 634.094 304.912V252.104H620.846V306.752C620.846 328.464 631.886 344.84 655.622 344.84ZM735.091 343V282.832C735.091 268.112 740.979 261.672 755.147 261.672C768.211 261.672 772.627 267.192 772.627 281.36V284.488H785.875V279.336C785.875 263.696 778.699 250.264 759.931 250.264C746.499 250.264 737.667 257.808 734.723 266.272H733.803V251H721.843V343H735.091ZM21.552 594.016V544.704C25.6 554.64 36.824 563.84 54.304 563.84C79.144 563.84 92.576 545.256 92.576 516.736C92.576 487.848 78.408 469.264 52.832 469.264C35.72 469.264 24.864 477.176 20.816 488.768H20.264V471.104H8.304V594.016H21.552ZM21.552 524.464V508.824C21.552 490.056 32.592 480.672 50.624 480.672C68.472 480.672 79.328 488.768 79.328 516.736C79.328 544.336 68.288 552.432 50.624 552.432C32.592 552.432 21.552 543.048 21.552 524.464ZM134.488 563.84C151.784 563.84 163.376 555.56 168.712 545.072L169.632 545.256V562H181.592V505.144C181.592 484.904 170.552 469.264 146.264 469.264C122.712 469.264 108.176 484.352 108.176 503.304V504.776H120.872V502.016C120.872 487.48 128.6 481.04 145.16 481.04C162.272 481.04 169.08 487.48 169.08 503.488V510.112L137.064 514.528C117.192 517.288 105.416 524.28 105.416 540.104C105.416 555.376 117.928 563.84 134.488 563.84ZM118.296 539.184C118.296 529.432 123.632 526.488 138.168 524.464L169.08 520.048V523.176C169.08 544.704 153.808 552.8 138.168 552.8C124.184 552.8 118.296 548.568 118.296 539.184ZM215.075 562V501.832C215.075 487.112 220.963 480.672 235.131 480.672C248.195 480.672 252.611 486.192 252.611 500.36V503.488H265.859V498.336C265.859 482.696 258.683 469.264 239.915 469.264C226.483 469.264 217.651 476.808 214.707 485.272H213.787V470H201.827V562H215.075ZM314.75 562.184C321.374 562.184 327.078 561.264 330.206 560.712V550.04H318.246C306.47 550.04 301.502 547.648 301.502 536.976V482.512H330.206V471.104H301.502V447.92H291.566L288.438 471.104H272.982V482.512H288.254V536.24C288.254 555.56 298.006 562.184 314.75 562.184ZM356.669 562V509.56C356.669 489.32 366.421 480.856 384.453 480.856C403.037 480.856 409.477 489.504 409.477 509.192V562H422.541V506.248C422.541 484.352 411.869 469.264 388.501 469.264C369.733 469.264 359.429 480.304 355.933 489.872H355.381V471.104H343.421V562H356.669ZM481.073 563.84C504.257 563.84 520.081 550.408 520.081 532.928V531.64H507.017V532.744C507.017 543.784 499.657 552.064 481.257 552.064C459.545 552.064 451.633 540.288 451.081 520.232H519.897C520.449 517.656 520.817 513.608 520.817 509.376C520.817 482.512 502.785 469.264 480.889 469.264C454.945 469.264 438.569 488.952 438.569 516.552C438.569 544.152 453.105 563.84 481.073 563.84ZM480.521 480.672C498.369 480.672 509.041 489.136 508.305 510.664H451.081C452.185 492.264 460.281 480.672 480.521 480.672ZM551.091 562V501.832C551.091 487.112 556.979 480.672 571.147 480.672C584.211 480.672 588.627 486.192 588.627 500.36V503.488H601.875V498.336C601.875 482.696 594.699 469.264 575.931 469.264C562.499 469.264 553.667 476.808 550.723 485.272H549.803V470H537.843V562H551.091Z" fill="#411616"/>
</svg>
