<svg width="694" height="225" viewBox="0 0 694 225" fill="none" xmlns="http://www.w3.org/2000/svg">
<path d="M47.18 46.61C42.9267 51.67 38.71 56.73 34.53 61.79C30.4233 66.7767 26.0233 71.58 21.33 76.2L18.91 75.43C19.0567 70.6633 19.13 65.64 19.13 60.36C19.2033 55.0067 19.24 49.5067 19.24 43.86C19.24 38.14 19.2033 32.3467 19.13 26.48C19.13 20.6133 19.13 14.4533 19.13 8C19.13 6.97333 18.3233 6.09333 16.71 5.36C15.0967 4.62667 13.0067 4.04 10.44 3.6V2.06C12.5667 2.20666 14.6933 2.31667 16.82 2.39C18.9467 2.46333 21.0733 2.5 23.2 2.5C25.5467 2.5 27.8567 2.46333 30.13 2.39C32.4767 2.24333 34.8233 2.13333 37.17 2.06V3.6C36.07 3.82 34.97 4.18666 33.87 4.69999C32.8433 5.14 31.89 5.69 31.01 6.35C30.2033 6.93666 29.5433 7.63333 29.03 8.44C28.5167 9.17333 28.26 10.0167 28.26 10.97C28.1867 20.3567 28.1133 29.5233 28.04 38.47C28.04 47.3433 28.04 56.2167 28.04 65.09L28.15 65.31L47.18 42.65V8.11C47.18 7.45 46.96 6.9 46.52 6.46C46.08 5.94666 45.53 5.50666 44.87 5.13999C44.2833 4.7 43.6233 4.37 42.89 4.14999C42.23 3.85666 41.68 3.67333 41.24 3.6V2.06C45.5667 2.28 49.8567 2.42666 54.11 2.5C58.3633 2.5 62.6533 2.5 66.98 2.5C70.06 2.5 73.1033 2.5 76.11 2.5C79.19 2.42666 82.27 2.28 85.35 2.06V3.6C79.7767 8.51333 74.6067 13.9767 69.84 19.99C65.0733 26.0033 60.4533 31.8333 55.98 37.48V64.87H56.31C56.8967 64.1367 57.96 62.8533 59.5 61.02C61.04 59.1867 62.8733 57.0233 65 54.53C67.2 51.9633 69.5467 49.14 72.04 46.06C74.6067 42.98 77.1733 39.8633 79.74 36.71C82.3067 33.4833 84.8 30.33 87.22 27.25C89.64 24.0967 91.7667 21.2 93.6 18.56C95.5067 15.92 97.01 13.61 98.11 11.63C99.21 9.65 99.76 8.18333 99.76 7.22999C99.76 6.64333 99.3567 6.16667 98.55 5.8C97.8167 5.36 96.9 4.99333 95.8 4.69999C94.7733 4.40666 93.6733 4.18667 92.5 4.04C91.4 3.81999 90.4467 3.67333 89.64 3.6V2.06C91.7667 2.20666 93.8567 2.31667 95.91 2.39C98.0367 2.46333 100.163 2.5 102.29 2.5C103.977 2.5 105.663 2.46333 107.35 2.39C109.11 2.31667 110.833 2.20666 112.52 2.06V3.6C101.007 16.2133 90.0433 28.7533 79.63 41.22C69.2167 53.6133 59.0233 65.2733 49.05 76.2L47.18 75.21V46.61ZM55.98 33.74H56.31C57.9967 31.2467 59.8667 28.68 61.92 26.04C63.9733 23.4 65.88 20.87 67.64 18.45C69.4733 16.03 71.0133 13.83 72.26 11.85C73.5067 9.87 74.13 8.29333 74.13 7.12C74.13 6.53333 73.8733 6.05666 73.36 5.68999C72.8467 5.32333 72.2233 5.03 71.49 4.81C70.83 4.59 70.0967 4.44333 69.29 4.37C68.5567 4.29667 67.97 4.26 67.53 4.26C65.11 4.26 63.13 4.51667 61.59 5.03C60.1233 5.54333 58.95 6.49667 58.07 7.89C57.2633 9.28333 56.7133 11.2267 56.42 13.72C56.1267 16.14 55.98 19.2933 55.98 23.18V33.74ZM130.206 75.1C144.066 75.1 153.526 67.07 153.526 56.62V55.85H145.716V56.51C145.716 63.11 141.316 68.06 130.316 68.06C117.336 68.06 112.606 61.02 112.276 49.03H153.416C153.746 47.49 153.966 45.07 153.966 42.54C153.966 26.48 143.186 18.56 130.096 18.56C114.586 18.56 104.796 30.33 104.796 46.83C104.796 63.33 113.486 75.1 130.206 75.1ZM129.876 25.38C140.546 25.38 146.926 30.44 146.486 43.31H112.276C112.936 32.31 117.776 25.38 129.876 25.38ZM164.021 25.71C168.641 25.71 171.501 23.4 171.501 18.23V0.299998H161.821V15.59H166.111V18.34C166.111 20.21 165.341 20.54 163.801 20.54H161.601V25.71H164.021ZM202.894 75.1C213.124 75.1 219.504 70.37 221.924 63.55H222.364V74H229.404V0.299998H221.484V30C219.174 24.06 212.464 18.56 202.014 18.56C187.164 18.56 179.024 29.67 179.024 46.83C179.024 63.99 187.604 75.1 202.894 75.1ZM186.944 46.83C186.944 30.22 193.544 25.38 204.214 25.38C214.994 25.38 221.484 30.99 221.484 42.21V51.56C221.484 62.67 214.994 68.28 204.214 68.28C193.434 68.28 186.944 63.44 186.944 46.83ZM269.926 74V0.299998H262.006V74H269.926ZM305.971 75.1C321.811 75.1 331.931 63.33 331.931 46.83C331.931 30.33 321.811 18.56 305.971 18.56C290.021 18.56 279.571 30.33 279.571 46.83C279.571 63.33 290.021 75.1 305.971 75.1ZM305.971 68.06C292.661 68.06 287.381 60.36 287.381 46.83C287.381 33.3 292.661 25.71 305.971 25.71C319.061 25.71 324.231 33.3 324.231 46.83C324.231 60.36 319.061 68.06 305.971 68.06ZM365.972 74L388.192 19.66H379.722L361.462 66.3H360.912L342.542 19.66H333.962L356.182 74H365.972ZM415.626 75.1C429.486 75.1 438.946 67.07 438.946 56.62V55.85H431.136V56.51C431.136 63.11 426.736 68.06 415.736 68.06C402.756 68.06 398.026 61.02 397.696 49.03H438.836C439.166 47.49 439.386 45.07 439.386 42.54C439.386 26.48 428.606 18.56 415.516 18.56C400.006 18.56 390.216 30.33 390.216 46.83C390.216 63.33 398.906 75.1 415.626 75.1ZM415.296 25.38C425.966 25.38 432.346 30.44 431.906 43.31H397.696C398.356 32.31 403.196 25.38 415.296 25.38ZM490.754 74.11C494.714 74.11 498.124 73.56 499.994 73.23V66.85H492.844C485.804 66.85 482.834 65.42 482.834 59.04V26.48H499.994V19.66H482.834V5.8H476.894L475.024 19.66H465.784V26.48H474.914V58.6C474.914 70.15 480.744 74.11 490.754 74.11ZM529.624 75.1C545.464 75.1 555.584 63.33 555.584 46.83C555.584 30.33 545.464 18.56 529.624 18.56C513.674 18.56 503.224 30.33 503.224 46.83C503.224 63.33 513.674 75.1 529.624 75.1ZM529.624 68.06C516.314 68.06 511.034 60.36 511.034 46.83C511.034 33.3 516.314 25.71 529.624 25.71C542.714 25.71 547.884 33.3 547.884 46.83C547.884 60.36 542.714 68.06 529.624 68.06ZM593.14 74V63.55H593.47C595.89 70.37 602.38 75.1 612.61 75.1C627.9 75.1 636.37 63.99 636.37 46.83C636.37 29.67 628.34 18.56 613.49 18.56C603.04 18.56 596.33 24.06 593.91 30V0.299998H585.99V74H593.14ZM593.91 51.56V42.21C593.91 30.99 600.51 25.38 611.29 25.38C621.85 25.38 628.45 30.22 628.45 46.83C628.45 63.44 621.96 68.28 611.29 68.28C600.51 68.28 593.91 62.67 593.91 51.56ZM669.679 75.1C683.539 75.1 692.999 67.07 692.999 56.62V55.85H685.189V56.51C685.189 63.11 680.789 68.06 669.789 68.06C656.809 68.06 652.079 61.02 651.749 49.03H692.889C693.219 47.49 693.439 45.07 693.439 42.54C693.439 26.48 682.659 18.56 669.569 18.56C654.059 18.56 644.269 30.33 644.269 46.83C644.269 63.33 652.959 75.1 669.679 75.1ZM669.349 25.38C680.019 25.38 686.399 30.44 685.959 43.31H651.749C652.409 32.31 657.249 25.38 669.349 25.38ZM12.75 223.7C18.69 223.7 23.86 221.94 27.38 213.69L53.89 150.66H45.31L33.32 180.91L27.93 194.22H27.27L21.55 180.91L8.79 150.66H0.21L23.53 204.23L20.45 211.27C18.47 215.56 16.82 216.55 11.87 216.55H5.71V222.93C7.25 223.26 10.11 223.7 12.75 223.7ZM82.1041 206.1C97.9441 206.1 108.064 194.33 108.064 177.83C108.064 161.33 97.9441 149.56 82.1041 149.56C66.1541 149.56 55.7041 161.33 55.7041 177.83C55.7041 194.33 66.1541 206.1 82.1041 206.1ZM82.1041 199.06C68.7941 199.06 63.5141 191.36 63.5141 177.83C63.5141 164.3 68.7941 156.71 82.1041 156.71C95.1941 156.71 100.364 164.3 100.364 177.83C100.364 191.36 95.1941 199.06 82.1041 199.06ZM138.091 206.1C149.421 206.1 155.581 199.28 157.781 193.01H158.111V205H165.261V150.66H157.451V181.13C157.451 193.89 150.631 199.17 140.621 199.17C129.951 199.17 125.221 194 125.221 182.23V150.66H117.301V183.33C117.301 196.31 123.901 206.1 138.091 206.1ZM185.6 205V169.03C185.6 160.23 189.12 156.38 197.59 156.38C205.4 156.38 208.04 159.68 208.04 168.15V170.02H215.96V166.94C215.96 157.59 211.67 149.56 200.45 149.56C192.42 149.56 187.14 154.07 185.38 159.13H184.83V150H177.68V205H185.6ZM253.168 224.14V194.66C255.588 200.6 262.298 206.1 272.748 206.1C287.598 206.1 295.628 194.99 295.628 177.94C295.628 160.67 287.158 149.56 271.868 149.56C261.638 149.56 255.148 154.29 252.728 161.22H252.398V150.66H245.248V224.14H253.168ZM253.168 182.56V173.21C253.168 161.99 259.768 156.38 270.548 156.38C281.218 156.38 287.708 161.22 287.708 177.94C287.708 194.44 281.108 199.28 270.548 199.28C259.768 199.28 253.168 193.67 253.168 182.56ZM320.684 206.1C331.024 206.1 337.954 201.15 341.144 194.88L341.694 194.99V205H348.844V171.01C348.844 158.91 342.244 149.56 327.724 149.56C313.644 149.56 304.954 158.58 304.954 169.91V170.79H312.544V169.14C312.544 160.45 317.164 156.6 327.064 156.6C337.294 156.6 341.364 160.45 341.364 170.02V173.98L322.224 176.62C310.344 178.27 303.304 182.45 303.304 191.91C303.304 201.04 310.784 206.1 320.684 206.1ZM311.004 191.36C311.004 185.53 314.194 183.77 322.884 182.56L341.364 179.92V181.79C341.364 194.66 332.234 199.5 322.884 199.5C314.524 199.5 311.004 196.97 311.004 191.36ZM368.861 205V169.03C368.861 160.23 372.381 156.38 380.851 156.38C388.661 156.38 391.301 159.68 391.301 168.15V170.02H399.221V166.94C399.221 157.59 394.931 149.56 383.711 149.56C375.681 149.56 370.401 154.07 368.641 159.13H368.091V150H360.941V205H368.861ZM428.449 205.11C432.409 205.11 435.819 204.56 437.689 204.23V197.85H430.539C423.499 197.85 420.529 196.42 420.529 190.04V157.48H437.689V150.66H420.529V136.8H414.589L412.719 150.66H403.479V157.48H412.609V189.6C412.609 201.15 418.439 205.11 428.449 205.11ZM453.51 205V173.65C453.51 161.55 459.34 156.49 470.12 156.49C481.23 156.49 485.08 161.66 485.08 173.43V205H492.89V171.67C492.89 158.58 486.51 149.56 472.54 149.56C461.32 149.56 455.16 156.16 453.07 161.88H452.74V150.66H445.59V205H453.51ZM527.882 206.1C541.742 206.1 551.202 198.07 551.202 187.62V186.85H543.392V187.51C543.392 194.11 538.992 199.06 527.992 199.06C515.012 199.06 510.282 192.02 509.952 180.03H551.092C551.422 178.49 551.642 176.07 551.642 173.54C551.642 157.48 540.862 149.56 527.772 149.56C512.262 149.56 502.472 161.33 502.472 177.83C502.472 194.33 511.162 206.1 527.882 206.1ZM527.552 156.38C538.222 156.38 544.602 161.44 544.162 174.31H509.952C510.612 163.31 515.452 156.38 527.552 156.38ZM569.74 205V169.03C569.74 160.23 573.26 156.38 581.73 156.38C589.54 156.38 592.18 159.68 592.18 168.15V170.02H600.1V166.94C600.1 157.59 595.81 149.56 584.59 149.56C576.56 149.56 571.28 154.07 569.52 159.13H568.97V150H561.82V205H569.74Z" fill="#411616"/>
</svg>
