<svg width="927" height="242" viewBox="0 0 927 242" fill="none" xmlns="http://www.w3.org/2000/svg">
<path d="M94.25 241.5C149.55 241.5 177.2 212.8 177.2 177.1C177.2 140.35 154.1 122.15 115.25 113.4L74.65 103.95C40.35 95.9 27.4 88.2 27.4 61.6C27.4 36.05 46.65 23.1 85.5 23.1C131.7 23.1 148.5 43.75 148.5 75.95V79.8H173.35V75.25C173.35 37.1 146.75 -2.5034e-06 85.85 -2.5034e-06C30.2 -2.5034e-06 2.2 29.4 2.2 63.35C2.2 101.15 27.4 117.95 64.15 125.65L104.75 134.75C140.1 142.45 152 152.25 152 178.5C152 205.45 133.8 218.4 94.95 218.4C42.8 218.4 25.65 198.1 25.65 165.55V161.7H0.8V166.95C0.8 207.2 29.15 241.5 94.25 241.5ZM269.327 238.35C281.927 238.35 292.777 236.6 298.727 235.55V215.25H275.977C253.577 215.25 244.127 210.7 244.127 190.4V86.8H298.727V65.1H244.127V21H225.227L219.277 65.1H189.877V86.8H218.927V189C218.927 225.75 237.477 238.35 269.327 238.35ZM388.964 241.5C425.014 241.5 444.614 219.8 451.614 199.85H452.664V238H475.414V65.1H450.564V162.05C450.564 202.65 428.864 219.45 397.014 219.45C363.064 219.45 348.014 203 348.014 165.55V65.1H322.814V169.05C322.814 210.35 343.814 241.5 388.964 241.5ZM583.195 241.5C615.745 241.5 636.045 226.45 643.745 204.75H645.145V238H667.545V3.49999H642.345V98C634.995 79.1 613.645 61.6 580.395 61.6C533.145 61.6 507.245 96.95 507.245 151.55C507.245 206.15 534.545 241.5 583.195 241.5ZM532.445 151.55C532.445 98.7 553.445 83.3 587.395 83.3C621.695 83.3 642.345 101.15 642.345 136.85V166.6C642.345 201.95 621.695 219.8 587.395 219.8C553.095 219.8 532.445 204.4 532.445 151.55ZM730.476 42V3.49999H705.626V42H730.476ZM730.476 238V63H705.626V238H730.476ZM843.832 241.5C894.232 241.5 926.432 204.05 926.432 151.55C926.432 99.05 894.232 61.6 843.832 61.6C793.082 61.6 759.832 99.05 759.832 151.55C759.832 204.05 793.082 241.5 843.832 241.5ZM843.832 219.1C801.482 219.1 784.682 194.6 784.682 151.55C784.682 108.5 801.482 84.35 843.832 84.35C885.482 84.35 901.932 108.5 901.932 151.55C901.932 194.6 885.482 219.1 843.832 219.1Z" fill="#201C1C"/>
</svg>
