<svg width="498" height="208" viewBox="0 0 498 208" fill="none" xmlns="http://www.w3.org/2000/svg">
<path d="M49.11 74V66.85H8.74V0.299998H0.93V74H49.11ZM76.329 75.1C90.189 75.1 99.649 67.07 99.649 56.62V55.85H91.839V56.51C91.839 63.11 87.439 68.06 76.439 68.06C63.459 68.06 58.729 61.02 58.399 49.03H99.539C99.869 47.49 100.089 45.07 100.089 42.54C100.089 26.48 89.309 18.56 76.219 18.56C60.709 18.56 50.919 30.33 50.919 46.83C50.919 63.33 59.609 75.1 76.329 75.1ZM75.999 25.38C86.669 25.38 93.049 30.44 92.609 43.31H58.399C59.059 32.31 63.899 25.38 75.999 25.38ZM130.08 74.11C134.04 74.11 137.45 73.56 139.32 73.23V66.85H132.17C125.13 66.85 122.16 65.42 122.16 59.04V26.48H139.32V19.66H122.16V5.8H116.22L114.35 19.66H105.11V26.48H114.24V58.6C114.24 70.15 120.07 74.11 130.08 74.11ZM147.635 25.71C152.255 25.71 155.115 23.4 155.115 18.23V0.299998H145.435V15.59H149.725V18.34C149.725 20.21 148.955 20.54 147.415 20.54H145.215V25.71H147.635ZM186.838 75.1C199.378 75.1 207.298 69.38 207.298 59.7C207.298 50.68 201.028 46.5 191.568 44.74L182.328 42.98C174.188 41.44 171.438 39.57 171.438 34.07C171.438 28.57 174.518 25.38 184.418 25.38C196.078 25.38 198.608 30.33 198.608 36.82V37.7H206.198V37.15C206.198 24.94 197.068 18.56 184.638 18.56C171.768 18.56 163.848 24.83 163.848 34.18C163.848 43.75 170.228 47.82 179.028 49.47L188.048 51.01C196.298 52.55 199.708 54.53 199.708 60.03C199.708 65.53 197.068 68.39 186.948 68.39C174.628 68.39 171.548 64.76 171.548 57.28V55.96H163.848V56.18C163.848 68.83 171.988 75.1 186.838 75.1ZM259.762 69.16C269.222 69.16 276.042 64.1 278.572 57.83H278.682V71.69C278.682 82.58 274.612 86.76 262.952 86.76C251.512 86.76 247.002 82.91 247.002 74H239.192C239.192 86.54 248.982 93.8 262.842 93.8C277.142 93.8 286.602 86.43 286.602 71.69V19.66H279.562V30.22H279.122C276.702 23.29 269.442 18.56 259.872 18.56C244.692 18.56 236.222 28.46 236.222 43.86C236.222 59.26 244.802 69.16 259.762 69.16ZM244.142 43.86C244.142 29.56 250.852 25.38 261.192 25.38C271.312 25.38 278.682 30.99 278.682 42.21V45.51C278.682 56.73 271.422 62.34 261.632 62.34C251.072 62.34 244.142 58.27 244.142 43.86ZM321.573 75.1C335.433 75.1 344.893 67.07 344.893 56.62V55.85H337.083V56.51C337.083 63.11 332.683 68.06 321.683 68.06C308.703 68.06 303.973 61.02 303.643 49.03H344.783C345.113 47.49 345.333 45.07 345.333 42.54C345.333 26.48 334.553 18.56 321.463 18.56C305.953 18.56 296.163 30.33 296.163 46.83C296.163 63.33 304.853 75.1 321.573 75.1ZM321.243 25.38C331.913 25.38 338.293 30.44 337.853 43.31H303.643C304.303 32.31 309.143 25.38 321.243 25.38ZM375.324 74.11C379.284 74.11 382.694 73.56 384.564 73.23V66.85H377.414C370.374 66.85 367.404 65.42 367.404 59.04V26.48H384.564V19.66H367.404V5.8H361.464L359.594 19.66H350.354V26.48H359.484V58.6C359.484 70.15 365.314 74.11 375.324 74.11ZM433.117 74.11C437.077 74.11 440.487 73.56 442.357 73.23V66.85H435.207C428.167 66.85 425.197 65.42 425.197 59.04V26.48H442.357V19.66H425.197V5.8H419.257L417.387 19.66H408.147V26.48H417.277V58.6C417.277 70.15 423.107 74.11 433.117 74.11ZM471.987 75.1C487.827 75.1 497.947 63.33 497.947 46.83C497.947 30.33 487.827 18.56 471.987 18.56C456.037 18.56 445.587 30.33 445.587 46.83C445.587 63.33 456.037 75.1 471.987 75.1ZM471.987 68.06C458.677 68.06 453.397 60.36 453.397 46.83C453.397 33.3 458.677 25.71 471.987 25.71C485.077 25.71 490.247 33.3 490.247 46.83C490.247 60.36 485.077 68.06 471.987 68.06ZM42.18 177.61C37.9267 182.67 33.71 187.73 29.53 192.79C25.4233 197.777 21.0233 202.58 16.33 207.2L13.91 206.43C14.0567 201.663 14.13 196.64 14.13 191.36C14.2033 186.007 14.24 180.507 14.24 174.86C14.24 169.14 14.2033 163.347 14.13 157.48C14.13 151.613 14.13 145.453 14.13 139C14.13 137.973 13.3233 137.093 11.71 136.36C10.0967 135.627 8.00667 135.04 5.44 134.6V133.06C7.56667 133.207 9.69333 133.317 11.82 133.39C13.9467 133.463 16.0733 133.5 18.2 133.5C20.5467 133.5 22.8567 133.463 25.13 133.39C27.4767 133.243 29.8233 133.133 32.17 133.06V134.6C31.07 134.82 29.97 135.187 28.87 135.7C27.8433 136.14 26.89 136.69 26.01 137.35C25.2033 137.937 24.5433 138.633 24.03 139.44C23.5167 140.173 23.26 141.017 23.26 141.97C23.1867 151.357 23.1133 160.523 23.04 169.47C23.04 178.343 23.04 187.217 23.04 196.09L23.15 196.31L42.18 173.65V139.11C42.18 138.45 41.96 137.9 41.52 137.46C41.08 136.947 40.53 136.507 39.87 136.14C39.2833 135.7 38.6233 135.37 37.89 135.15C37.23 134.857 36.68 134.673 36.24 134.6V133.06C40.5667 133.28 44.8567 133.427 49.11 133.5C53.3633 133.5 57.6533 133.5 61.98 133.5C65.06 133.5 68.1033 133.5 71.11 133.5C74.19 133.427 77.27 133.28 80.35 133.06V134.6C74.7767 139.513 69.6067 144.977 64.84 150.99C60.0733 157.003 55.4533 162.833 50.98 168.48V195.87H51.31C51.8967 195.137 52.96 193.853 54.5 192.02C56.04 190.187 57.8733 188.023 60 185.53C62.2 182.963 64.5467 180.14 67.04 177.06C69.6067 173.98 72.1733 170.863 74.74 167.71C77.3067 164.483 79.8 161.33 82.22 158.25C84.64 155.097 86.7667 152.2 88.6 149.56C90.5067 146.92 92.01 144.61 93.11 142.63C94.21 140.65 94.76 139.183 94.76 138.23C94.76 137.643 94.3567 137.167 93.55 136.8C92.8167 136.36 91.9 135.993 90.8 135.7C89.7733 135.407 88.6733 135.187 87.5 135.04C86.4 134.82 85.4467 134.673 84.64 134.6V133.06C86.7667 133.207 88.8567 133.317 90.91 133.39C93.0367 133.463 95.1633 133.5 97.29 133.5C98.9767 133.5 100.663 133.463 102.35 133.39C104.11 133.317 105.833 133.207 107.52 133.06V134.6C96.0067 147.213 85.0433 159.753 74.63 172.22C64.2167 184.613 54.0233 196.273 44.05 207.2L42.18 206.21V177.61ZM50.98 164.74H51.31C52.9967 162.247 54.8667 159.68 56.92 157.04C58.9733 154.4 60.88 151.87 62.64 149.45C64.4733 147.03 66.0133 144.83 67.26 142.85C68.5067 140.87 69.13 139.293 69.13 138.12C69.13 137.533 68.8733 137.057 68.36 136.69C67.8467 136.323 67.2233 136.03 66.49 135.81C65.83 135.59 65.0967 135.443 64.29 135.37C63.5567 135.297 62.97 135.26 62.53 135.26C60.11 135.26 58.13 135.517 56.59 136.03C55.1233 136.543 53.95 137.497 53.07 138.89C52.2633 140.283 51.7133 142.227 51.42 144.72C51.1267 147.14 50.98 150.293 50.98 154.18V164.74ZM126.196 206.1C142.036 206.1 152.156 194.33 152.156 177.83C152.156 161.33 142.036 149.56 126.196 149.56C110.246 149.56 99.7959 161.33 99.7959 177.83C99.7959 194.33 110.246 206.1 126.196 206.1ZM126.196 199.06C112.886 199.06 107.606 191.36 107.606 177.83C107.606 164.3 112.886 156.71 126.196 156.71C139.286 156.71 144.456 164.3 144.456 177.83C144.456 191.36 139.286 199.06 126.196 199.06ZM169.643 205V169.03C169.643 160.23 173.163 156.38 181.633 156.38C189.443 156.38 192.083 159.68 192.083 168.15V170.02H200.003V166.94C200.003 157.59 195.713 149.56 184.493 149.56C176.463 149.56 171.183 154.07 169.423 159.13H168.873V150H161.723V205H169.643ZM216.908 205V180.58H230.548L246.608 205H255.848L236.928 176.4L256.288 150.66H247.048L230.548 173.43H216.908V131.3H208.988V205H216.908Z" fill="#411616"/>
</svg>
